<svg xmlns="http://www.w3.org/2000/svg" xmlns:xlink="http://www.w3.org/1999/xlink" version="1.1" x="0px" y="0px" width="100px" height="100px" viewBox="0 0 100 100" enable-background="new 0 0 100 100" xml:space="preserve">
<g id="Layer_2">
</g>
<g id="Layer_1">
	<g>
		<path d="M150,100c27.615,0,50-22.386,50-50S177.615,0,150,0c-27.613,0-50,22.386-50,50S122.387,100,150,100z M150,5    c24.814,0,45,20.187,45,45c0,24.813-20.186,45-45,45c-24.812,0-45-20.187-45-45C105,25.187,125.188,5,150,5z"/>
		<path d="M-50,100c-27.614,0-50,22.386-50,50s22.386,50,50,50s50-22.386,50-50S-22.386,100-50,100z M-50,195    c-24.812,0-45-20.187-45-45c0-24.813,20.188-45,45-45c24.813,0,45,20.187,45,45C-5,174.813-25.187,195-50,195z"/>
		<path d="M50,100c-27.614,0-50,22.386-50,50s22.386,50,50,50s50-22.386,50-50S77.614,100,50,100z M50,195    c-24.812,0-45-20.187-45-45c0-24.813,20.188-45,45-45c24.813,0,45,20.187,45,45C95,174.813,74.813,195,50,195z"/>
		<path d="M150,100c-27.614,0-50,22.386-50,50s22.386,50,50,50s50-22.386,50-50S177.614,100,150,100z M150,195    c-24.812,0-45-20.187-45-45c0-24.813,20.188-45,45-45c24.813,0,45,20.187,45,45C195,174.813,174.813,195,150,195z"/>
		<path d="M-50,100c27.615,0,50-22.386,50-50S-22.385,0-50,0c-27.613,0-50,22.386-50,50S-77.613,100-50,100z M-50,5    C-25.186,5-5,25.187-5,50c0,24.813-20.186,45-45,45c-24.812,0-45-20.187-45-45C-95,25.187-74.812,5-50,5z"/>
		<path d="M50,100c27.614,0,50-22.386,50-50S77.614,0,50,0S0,22.386,0,50S22.386,100,50,100z M50,5c24.813,0,45,20.187,45,45    c0,24.813-20.187,45-45,45C25.188,95,5,74.813,5,50C5,25.187,25.188,5,50,5z"/>
		<circle cx="22.5" cy="37.5" r="2.5"/>
		<circle cx="77.5" cy="37.5" r="2.5"/>
		<path d="M22.5,80h55c1.381,0,2.5-1.119,2.5-2.5c0-16.542-13.458-30-30-30s-30,13.458-30,30C20,78.881,21.119,80,22.5,80z M50,52.5    c12.941,0,23.616,9.884,24.875,22.5h-49.75C26.384,62.384,37.059,52.5,50,52.5z"/>
	</g>
</g>
</svg>