<?xml version="1.0" encoding="utf-8"?>
<!-- Generator: Adobe Illustrator 16.0.0, SVG Export Plug-In . SVG Version: 6.00 Build 0)  -->
<!DOCTYPE svg PUBLIC "-//W3C//DTD SVG 1.1//EN" "http://www.w3.org/Graphics/SVG/1.1/DTD/svg11.dtd">
<svg version="1.1" id="Layer_1" xmlns="http://www.w3.org/2000/svg" xmlns:xlink="http://www.w3.org/1999/xlink" x="0px" y="0px"
	 width="32px" height="32px" viewBox="34 34 32 32" enable-background="new 34 34 32 32" xml:space="preserve">
<g id="Your_Icon">
	<g>
		<path fill="#FFFFFF" d="M62.708,37.229c-2.164-2.163-5.04-3.355-8.101-3.355c-3.059,0-5.936,1.191-8.099,3.354
			c-2.163,2.163-3.355,5.04-3.354,8.1c0,1.81,0.425,3.551,1.214,5.123l-9.374,9.374c-1.412,1.415-1.412,3.703,0,5.117
			C35.702,65.647,36.627,66,37.555,66c0.925,0,1.85-0.354,2.557-1.058l9.373-9.374c1.574,0.789,3.313,1.215,5.124,1.215
			c3.061,0,5.937-1.191,8.101-3.354c2.163-2.163,3.354-5.04,3.354-8.1C66.062,42.27,64.871,39.393,62.708,37.229z M54.608,51.961
			c-1.77,0-3.436-0.691-4.689-1.944c-1.251-1.253-1.941-2.917-1.941-4.688c-0.001-1.771,0.689-3.436,1.941-4.688
			c1.253-1.252,2.917-1.941,4.688-1.941c1.772,0,3.438,0.689,4.69,1.941s1.941,2.918,1.941,4.689
			c0.001,1.771-0.688,3.436-1.94,4.688C58.045,51.271,56.381,51.961,54.608,51.961z"/>
	</g>
</g>
</svg>
