<?xml version="1.0" encoding="utf-8"?>
<!-- Generator: Adobe Illustrator 16.0.0, SVG Export Plug-In . SVG Version: 6.00 Build 0)  -->
<!DOCTYPE svg PUBLIC "-//W3C//DTD SVG 1.1//EN" "http://www.w3.org/Graphics/SVG/1.1/DTD/svg11.dtd">
<svg version="1.1" id="Layer_1" xmlns="http://www.w3.org/2000/svg" xmlns:xlink="http://www.w3.org/1999/xlink" x="0px" y="0px"
	 width="32px" height="32px" viewBox="0 0 32 32" enable-background="new 0 0 32 32" xml:space="preserve">
<g id="Captions">
</g>
<g id="Your_Icon">
	<g>
		<path fill="#FFFFFF" d="M27.065,20.52c-2.032-3.517-5.356-9.279-7.388-12.796c-2.032-3.52-5.357-3.52-7.389,0
			c-2.031,3.518-5.355,9.28-7.389,12.796c-2.032,3.52-0.369,6.398,3.694,6.398c4.064,0,10.713,0,14.775,0
			C27.434,26.918,29.098,24.039,27.065,20.52z M15.885,23.032c-1.041,0-1.883-0.842-1.883-1.88c0-1.042,0.843-1.886,1.883-1.886
			c1.04,0,1.88,0.844,1.88,1.886C17.766,22.189,16.925,23.032,15.885,23.032z M17.836,16.177c0,1.078-0.872,1.954-1.951,1.954
			c-1.079,0-1.952-0.876-1.952-1.954v-3.344c0-1.08,0.873-1.952,1.952-1.952c1.079,0,1.951,0.873,1.951,1.952V16.177z"/>
	</g>
</g>
</svg>
