<?xml version="1.0" encoding="utf-8"?>
<!-- Generator: Adobe Illustrator 16.0.0, SVG Export Plug-In . SVG Version: 6.00 Build 0)  -->
<!DOCTYPE svg PUBLIC "-//W3C//DTD SVG 1.1//EN" "http://www.w3.org/Graphics/SVG/1.1/DTD/svg11.dtd">
<svg version="1.1" id="Icon" xmlns="http://www.w3.org/2000/svg" xmlns:xlink="http://www.w3.org/1999/xlink" x="0px" y="0px"
	 width="32px" height="32px" viewBox="34 34 32 32" enable-background="new 34 34 32 32" xml:space="preserve">
<path fill="#FFFFFF" d="M54.613,44.528c-0.456,0-0.904,0.031-1.338,0.091c-0.035,0.005-0.065,0.027-0.081,0.059
	c-0.016,0.032-0.014,0.069,0.005,0.1c0.508,0.862,0.799,1.819,0.799,2.828c0,2.626-1.934,4.927-4.764,6.044
	c-0.035,0.014-0.06,0.045-0.066,0.082s0.008,0.075,0.038,0.099c1.177,0.948,2.791,1.587,4.603,1.734
	c0.033,0.002,0.063,0.019,0.085,0.044c0.021,0.024,0.031,0.059,0.027,0.092c-0.116,1.08-0.339,2.131-0.458,2.651
	c-0.012,0.051,0.01,0.104,0.054,0.131s0.101,0.024,0.142-0.008c1.596-1.242,2.631-2.45,3.108-3.064
	c0.025-0.034,0.062-0.057,0.103-0.066C59.846,54.63,62,52.537,62,50.067C62.001,47.009,58.693,44.528,54.613,44.528z"/>
<path fill="#FFFFFF" d="M52.768,47.606c0-3.06-3.308-5.542-7.388-5.542c-4.08,0-7.388,2.481-7.388,5.542
	c0,2.47,2.155,4.563,5.131,5.277c0.041,0.01,0.077,0.034,0.103,0.066c0.478,0.612,1.512,1.821,3.109,3.064
	c0.041,0.032,0.098,0.035,0.142,0.007c0.043-0.027,0.065-0.081,0.054-0.131c-0.12-0.521-0.343-1.57-0.459-2.65
	c-0.003-0.033,0.006-0.066,0.027-0.092c0.022-0.025,0.052-0.042,0.085-0.044C49.884,52.801,52.768,50.461,52.768,47.606z"/>
</svg>
