<?xml version="1.0" encoding="utf-8"?>
<!-- Generator: Adobe Illustrator 16.0.0, SVG Export Plug-In . SVG Version: 6.00 Build 0)  -->
<!DOCTYPE svg PUBLIC "-//W3C//DTD SVG 1.1//EN" "http://www.w3.org/Graphics/SVG/1.1/DTD/svg11.dtd">
<svg version="1.1" id="Layer_1" xmlns="http://www.w3.org/2000/svg" xmlns:xlink="http://www.w3.org/1999/xlink" x="0px" y="0px"
	 width="32px" height="32px" viewBox="34 34 32 32" enable-background="new 34 34 32 32" xml:space="preserve">
<g id="XMLID_2_">
	<g>
		<g id="XMLID_3_">
			<g>
				<path fill="#FFFFFF" d="M47.592,51.649h0.207c-0.058-0.047-0.113-0.092-0.163-0.143c-1.64-1.482-2.89-4.359-2.89-6.686
					c0-3.292,2.695-5.457,5.243-5.457c2.546,0,5.106,2.342,5.106,5.632c0,2.325-1.384,5.116-3.096,6.545
					c0.353,1.342,2.278,1.781,6.251,2.871c4.413,1.211,3.653,4.209,3.641,6.223H38.069c-0.014-2.014-1.107-5.012,3.307-6.223
					C45.239,53.353,47.164,52.907,47.592,51.649z"/>
				<path fill="#FFFFFF" d="M47.799,51.649h-0.207c0.017-0.047,0.03-0.094,0.044-0.143C47.686,51.558,47.742,51.603,47.799,51.649z"
					/>
			</g>
		</g>
	</g>
</g>
</svg>
