<?xml version="1.0" encoding="utf-8"?>
<!-- Generator: Adobe Illustrator 16.0.0, SVG Export Plug-In . SVG Version: 6.00 Build 0)  -->
<!DOCTYPE svg PUBLIC "-//W3C//DTD SVG 1.1//EN" "http://www.w3.org/Graphics/SVG/1.1/DTD/svg11.dtd">
<svg version="1.1" id="Layer_1" xmlns="http://www.w3.org/2000/svg" xmlns:xlink="http://www.w3.org/1999/xlink" x="0px" y="0px"
	 width="32px" height="32px" viewBox="34 34 32 32" enable-background="new 34 34 32 32" xml:space="preserve">
<path fill="#FFFFFF" d="M50,47.92c-2.294,0-4.16,1.867-4.16,4.16c0,2.293,1.866,4.159,4.16,4.159c2.293,0,4.16-1.866,4.16-4.159
	C54.16,49.787,52.293,47.92,50,47.92z"/>
<path fill="#FFFFFF" d="M61.84,41.84h-4.8c0-2.298-1.862-4.16-4.16-4.16h-5.76c-2.298,0-4.16,1.862-4.16,4.16h-4.8
	C35.862,41.84,34,43.702,34,46v12.16c0,2.297,1.862,4.159,4.16,4.159h23.68c2.298,0,4.16-1.862,4.16-4.159V46
	C66,43.702,64.138,41.84,61.84,41.84z M50,59.439c-4.059,0-7.36-3.302-7.36-7.359c0-4.059,3.302-7.36,7.36-7.36
	s7.359,3.302,7.359,7.36C57.359,56.138,54.059,59.439,50,59.439z"/>
</svg>
