<?xml version="1.0" encoding="utf-8"?>
<!-- Generator: Adobe Illustrator 16.0.0, SVG Export Plug-In . SVG Version: 6.00 Build 0)  -->
<!DOCTYPE svg PUBLIC "-//W3C//DTD SVG 1.1//EN" "http://www.w3.org/Graphics/SVG/1.1/DTD/svg11.dtd">
<svg version="1.1" id="Layer_1" xmlns="http://www.w3.org/2000/svg" xmlns:xlink="http://www.w3.org/1999/xlink" x="0px" y="0px"
	 width="100px" height="100px" viewBox="0 0 100 100" enable-background="new 0 0 100 100" xml:space="preserve">
<g id="Layer_2">
</g>
<g id="Layer_1_1_">
	<g>
		<path d="M50,0C22.386,0,0,22.386,0,50s22.386,50,50,50c27.613,0,50-22.386,50-50S77.613,0,50,0z M50,95C25.188,95,5,74.812,5,50
			C5,25.187,25.188,5,50,5c24.812,0,45,20.187,45,45C95,74.812,74.812,95,50,95z"/>
		<circle cx="22.5" cy="37.5" r="2.5"/>
		<circle cx="77.5" cy="37.5" r="2.5"/>
		<path d="M22.5,47.5c-1.381,0-2.5,1.119-2.5,2.5s1.119,2.5,2.5,2.5c13.785,0,25,11.215,25,25c0,1.381,1.119,2.5,2.5,2.5
			s2.5-1.119,2.5-2.5C52.5,60.958,39.042,47.5,22.5,47.5z"/>
	</g>
</g>
</svg>
