<?xml version="1.0" encoding="utf-8"?>
<!-- Generator: Adobe Illustrator 16.0.0, SVG Export Plug-In . SVG Version: 6.00 Build 0)  -->
<!DOCTYPE svg PUBLIC "-//W3C//DTD SVG 1.1//EN" "http://www.w3.org/Graphics/SVG/1.1/DTD/svg11.dtd">
<svg version="1.1" id="Layer_1" xmlns="http://www.w3.org/2000/svg" xmlns:xlink="http://www.w3.org/1999/xlink" x="0px" y="0px"
	 width="32px" height="32px" viewBox="0 0 32 32" enable-background="new 0 0 32 32" xml:space="preserve">
<g>
	<g id="XMLID_5_">
		<g>
			<g>
				<path fill="#FFFFFF" d="M60.168,51.372c1.85,0.543,1.532,1.885,1.527,2.785h-4.613c-0.166-0.546-0.576-1.054-1.555-1.341
					l-0.311-0.092c-1.294-0.377-1.988-0.58-2.17-0.988c-0.043-0.146-0.029-0.311,0.402-0.467c1.388-0.403,2.09-0.615,2.256-1.136
					h0.088c-0.023-0.021-0.046-0.041-0.068-0.065c-0.686-0.661-1.209-1.951-1.209-2.993c0-1.474,1.129-2.441,2.195-2.441
					s2.141,1.046,2.141,2.521c0,1.042-0.584,2.292-1.3,2.931C57.7,50.688,58.504,50.884,60.168,51.372z"/>
			</g>
			<g id="XMLID_6_">
				<g>
					<path fill="#FFFFFF" d="M56.982,57.542H42.65c-0.008-0.144-0.018-0.287-0.034-0.456c-0.044-0.566-0.089-1.148,0.069-1.682
						c0.194-0.625,0.696-1.176,1.857-1.514l0.449-0.144c2.042-0.583,3.134-0.912,3.494-1.683l0.115-0.192l-0.009-0.245
						c-0.026-0.018-0.044-0.034-0.079-0.076c-0.123-0.127-0.248-0.254-0.361-0.404c-0.793-1.006-1.356-2.562-1.356-3.845
						c0-1.64,1.216-3.38,3.028-3.38c1.418,0,2.941,1.403,2.941,3.498c0,1.335-0.697,2.991-1.647,3.962
						c-0.062,0.068-0.132,0.127-0.192,0.187l-0.115,0.103l0.035,0.153c0.247,0.962,1.355,1.292,3.584,1.925l0.457,0.146
						c1.153,0.338,1.698,0.896,1.938,1.512h0.008c0.223,0.6,0.193,1.252,0.167,1.859C56.991,57.355,56.991,57.457,56.982,57.542z"/>
				</g>
			</g>
			<g>
				<path fill="#FFFFFF" d="M39.427,51.372c-1.851,0.543-1.532,1.885-1.526,2.785h4.611c0.168-0.546,0.575-1.054,1.557-1.341
					l0.308-0.092c1.296-0.377,1.99-0.58,2.17-0.988c-0.049-0.161,0.04-0.404-0.401-0.467c-1.388-0.403-2.09-0.615-2.256-1.136
					h-0.087c0.023-0.021,0.048-0.041,0.068-0.065c0.687-0.661,1.21-1.951,1.21-2.993c0-1.474-1.127-2.441-2.195-2.441
					s-2.14,1.046-2.14,2.521c0,1.042,0.581,2.292,1.296,2.931C41.895,50.688,41.089,50.884,39.427,51.372z"/>
			</g>
		</g>
	</g>
</g>
</svg>
