<?xml version="1.0" encoding="utf-8"?>
<!-- Generator: Adobe Illustrator 16.0.0, SVG Export Plug-In . SVG Version: 6.00 Build 0)  -->
<!DOCTYPE svg PUBLIC "-//W3C//DTD SVG 1.1//EN" "http://www.w3.org/Graphics/SVG/1.1/DTD/svg11.dtd">
<svg version="1.1" id="Layer_1" xmlns="http://www.w3.org/2000/svg" xmlns:xlink="http://www.w3.org/1999/xlink" x="0px" y="0px"
	 width="32px" height="32px" viewBox="34 34 32 32" enable-background="new 34 34 32 32" xml:space="preserve">
<g id="Layer_2">
</g>
<g id="Layer_1_1_">
	<g>
		<path d="M50,62c6.627,0,12-5.373,12-12c0-6.627-5.373-12-12-12c-6.627,0-12,5.373-12,12C38,56.627,43.373,62,50,62z M50,39.2
			c5.955,0,10.801,4.845,10.801,10.8S55.955,60.801,50,60.801c-5.955,0-10.8-4.846-10.8-10.801S44.045,39.2,50,39.2z"/>
		<circle cx="43.4" cy="47" r="0.6"/>
		<circle cx="56.6" cy="47" r="0.6"/>
		<path d="M43.4,57.199H56.6c0.332,0,0.6-0.268,0.6-0.6c0-3.97-3.229-7.199-7.199-7.199s-7.2,3.229-7.2,7.199
			C42.8,56.932,43.068,57.199,43.4,57.199z M50,50.6c3.105,0,5.667,2.372,5.97,5.4H44.03C44.332,52.972,46.894,50.6,50,50.6z"/>
	</g>
</g>
</svg>
