<?xml version="1.0" encoding="utf-8"?>
<!-- Generator: Adobe Illustrator 16.0.0, SVG Export Plug-In . SVG Version: 6.00 Build 0)  -->
<!DOCTYPE svg PUBLIC "-//W3C//DTD SVG 1.1//EN" "http://www.w3.org/Graphics/SVG/1.1/DTD/svg11.dtd">
<svg version="1.1" id="Layer_1" xmlns="http://www.w3.org/2000/svg" xmlns:xlink="http://www.w3.org/1999/xlink" x="0px" y="0px"
	 width="32px" height="32px" viewBox="34 34 32 32" enable-background="new 34 34 32 32" xml:space="preserve">
<g id="Layer_2">
</g>
<g id="Layer_1_1_">
	<g>
		<circle cx="43.4" cy="47" r="0.6"/>
		<circle cx="56.6" cy="47" r="0.6"/>
		<path d="M62,50c0-6.627-5.373-12-12-12c-6.627,0-12,5.373-12,12c0,6.628,5.373,12,12,12C56.627,62,62,56.628,62,50z M50,60.8
			c-5.955,0-10.8-4.845-10.8-10.8S44.045,39.2,50,39.2S60.8,44.045,60.8,50S55.955,60.8,50,60.8z"/>
		<path d="M56.6,49.4H43.4c-0.332,0-0.6,0.269-0.6,0.6c0,3.97,3.23,7.2,7.2,7.2c3.97,0,7.2-3.23,7.2-7.2
			C57.2,49.668,56.932,49.4,56.6,49.4z M50,56c-3.106,0-5.668-2.372-5.97-5.4H55.97C55.668,53.628,53.105,56,50,56z"/>
	</g>
</g>
</svg>
