<?xml version="1.0" encoding="utf-8"?>
<!-- Generator: Adobe Illustrator 16.0.0, SVG Export Plug-In . SVG Version: 6.00 Build 0)  -->
<!DOCTYPE svg PUBLIC "-//W3C//DTD SVG 1.1//EN" "http://www.w3.org/Graphics/SVG/1.1/DTD/svg11.dtd">
<svg version="1.1" id="Layer_1" xmlns="http://www.w3.org/2000/svg" xmlns:xlink="http://www.w3.org/1999/xlink" x="0px" y="0px"
	 width="32px" height="32px" viewBox="34 34 32 32" enable-background="new 34 34 32 32" xml:space="preserve">
<g id="XMLID_1_">
	<g>
		<g id="XMLID_2_">
			<g>
				<path fill="#FFFFFF" d="M59.275,51.057l1.614-2.035l1.44,1.827l3.08,3.892h-3.08v2.229c0,1.851-1.509,3.359-3.358,3.359H37.359
					C35.509,60.329,34,58.82,34,56.97V43.03c0-1.851,1.509-3.36,3.359-3.36h21.612c1.85,0,3.358,1.509,3.358,3.36v1.812h-3.055
					V43.03c0-0.167-0.133-0.308-0.304-0.308H37.359c-0.164,0-0.308,0.14-0.308,0.308V56.97c0,0.172,0.144,0.305,0.308,0.305h21.612
					c0.171,0,0.304-0.133,0.304-0.305v-2.229h-2.913L59.275,51.057z"/>
			</g>
		</g>
	</g>
</g>
<polygon fill="#FFFFFF" points="51.624,49.093 56.104,55.538 47.146,55.538 47.165,55.515 37.65,55.515 45.238,45.251 
	49.908,51.565 "/>
<path fill="#FFFFFF" d="M54.199,45.079c0.921,0,1.665,0.747,1.665,1.665c0,0.919-0.744,1.666-1.665,1.666
	c-0.923,0-1.666-0.747-1.666-1.666C52.533,45.826,53.276,45.079,54.199,45.079z"/>
</svg>
